# AST/ASF file generated using VICON BodyLanguage
# -----------------------------------------------
:version 1.10
:name VICON
:units
  mass 1.0
  length 0.45
  angle deg
:documentation
   .ast/.asf automatically generated from VICON data using
   VICON BodyBuilder and BodyLanguage model FoxedUp or BRILLIANT.MOD
:root
   order TX TY TZ RX RY RZ
   axis XYZ
   position 0 0 0  
   orientation 0 0 0 
:bonedata
  begin
     id 1 
     name lhipjoint
     direction 0.722297 -0.617336 0.311742 
     length 2.6635 
     axis 0 0 0  XYZ
  end
  begin
     id 2 
     name lfemur
     direction 0.34202 -0.939693 0  
     length 7.39349  
     axis 0 0 20  XYZ
    dof rx ry rz
    limits (-160.0 20.0)
           (-70.0 70.0)
           (-60.0 70.0)
  end
  begin
     id 3 
     name ltibia
     direction 0.34202 -0.939693 0   
     length 7.36294   
     axis 0 0 20   XYZ
    dof rx
    limits (-10.0 170.0)
  end
  begin
     id 4 
     name lfoot
     direction 0.104879 -0.288152 0.951824   
     length 2.16981   
     axis -90 7.62852e-016 20   XYZ
    dof rx rz
    limits (-45.0 90.0)
           (-70.0 20.0)
  end
  begin
     id 5 
     name ltoes
     direction 1.53586e-011 -4.21895e-011 1   
     length 1.08218   
     axis -90 7.62852e-016 20   XYZ
    dof rx
    limits (-90.0 20.0)
  end
  begin
     id 6 
     name rhipjoint
     direction -0.75102 -0.589393 0.297631   
     length 2.78977  
     axis 0 0 0  XYZ 
  end
  begin
     id 7 
     name rfemur
     direction -0.34202 -0.939693 0   
     length 7.46076   
     axis 0 0 -20   XYZ
    dof rx ry rz
    limits (-160.0 20.0)
           (-70.0 70.0)
           (-70.0 60.0)
  end
  begin
     id 8 
     name rtibia
     direction -0.34202 -0.939693 0   
     length 7.31726   
     axis 0 0 -20   XYZ
    dof rx
    limits (-10.0 170.0)
 end
 begin
     id 9 
     name rfoot
     direction -0.107991 -0.296704 0.948844   
     length 2.09388  
     axis -90 -7.62852e-016 -20   XYZ
    dof rx rz
    limits (-45.0 90.0)
           (-20.0 70.0)
  end
  begin
     id 10 
     name rtoes
     direction -1.53559e-011 -4.21911e-011 1   
     length 1.04433   
     axis -90 -7.62852e-016 -20   XYZ
    dof rx
    limits (-90.0 20.0)
  end
  begin
     id 11 
     name lowerback
     direction 0.0165164 0.98272 0.184358   
     length 1.71896   
     axis 0 0 0   XYZ
    dof rx ry rz
    limits (-20.0 45.0)
           (-30.0 30.0)
           (-30.0 30.0)
  end
  begin
     id 12 
     name upperback
     direction -0.00887249 0.992297 0.123566   
     length 1.71504   
     axis 0 0 0   XYZ
    dof rx ry rz
    limits (-20.0 45.0)
           (-30.0 30.0)
           (-30.0 30.0)
  end
  begin
     id 13 
     name thorax
     direction -0.0157026 0.998908 0.0440032   
     length 1.77022   
     axis 0 0 0   XYZ
    dof rx ry rz
    limits (-20.0 45.0)
           (-30.0 30.0)
           (-30.0 30.0)
  end
  begin
     id 14 
     name lowerneck
     direction -0.0238856 0.998137 0.0561411   
     length 1.89341   
     axis 0 0 0   XYZ
    dof rx ry rz
    limits (-20.0 45.0)
           (-30.0 30.0)
           (-30.0 30.0)
  end
  begin
     id 15 
     name upperneck
     direction 0.0276574 0.952253 -0.304056   
     length 1.86999   
     axis 0 0 0   XYZ
    dof rx ry rz
    limits (-20.0 45.0)
           (-30.0 30.0)
           (-30.0 30.0)
  end
  begin
     id 16
     name head
     direction 0.00800083 0.994258 -0.106712  
     length 1.91492  
     axis 0 0 0   XYZ
    dof rx ry rz
    limits (-20.0 45.0)
           (-30.0 30.0)
           (-30.0 30.0)
  end
  begin
     id 17 
     name lclavicle
     direction 0.97203 0.225407 0.06595  
     length 3.34889  
     axis 0 0 0   XYZ
    dof ry rz
    limits (-20.0 10.0)
           (0.0 20.0)
  end
  begin
     id 18 
     name lhumerus
     direction 1 -4.48973e-011 2.20267e-027   
     length 4.85645   
     axis 180 -30 -90   XYZ
    dof rx ry rz
    limits (-60.0 90.0)
           (-90.0 90.0)
           (-90.0 90.0)
  end
  begin
     id 19
     name lradius
     direction 1 -4.4897e-011 4.60472e-027   
     length 2.79874   
     axis 180 -30 -90   XYZ
    dof rx
    limits (-10.0 170.0)
  end
  begin
     id 20
     name lwrist
     direction 1 -4.48952e-011 1.14928e-026   
     length 1.39937   
     axis -6.29373e-015 90 90   XYZ
    dof ry
    limits (-180.0 0.0)
 end
  begin
     id 21 
     name lhand
     direction 1 -4.48967e-011 2.29886e-026   
     length 0.573398   
     axis -1.46689e-014 90 90   XYZ
    dof rx rz
    limits (-90.0 90.0)
           (-45.0 45.0)
  end
  begin
     id 22 
     name lfingers
     direction 1 -4.48955e-011 4.59726e-026   
     length 0.462289   
     axis -2.93383e-014 90 90   XYZ
    dof rx
    limits (0.0 90.0)
  end
  begin
     id 23
     name lthumb
     direction 0.707107 -6.34866e-011 0.707107   
     length 0.663757   
     axis -90 45 5.69224e-014   XYZ
    dof rx rz
    limits (-45.0 45.0)
           (-45.0 45.0)
  end
  begin
     id 24 
     name rclavicle
     direction -0.981571 0.157346 0.108443   
     length 3.35257  
     axis 0 0 0   XYZ 
    dof ry rz
    limits (-10.0 20.0)
           (-20.0 0.0)
  end
  begin
     id 25 
     name rhumerus
     direction -1 -4.48967e-011 8.58308e-029  
     length 4.67018   
     axis 180 30 90   XYZ
    dof rx ry rz
    limits (-90.0 60.0)
           (-90.0 90.0)
           (-90.0 90.0)
  end
  begin
     id 26 
     name rradius
     direction -1 -4.48958e-011 4.52548e-027   
     length 2.65534   
     axis 180 30 90   XYZ
    dof rx
    limits (-10.0 170.0)
  end
  begin
     id 27 
     name rwrist
     direction -1 -4.48977e-011 1.14952e-026   
     length 1.32767   
     axis -6.29373e-015 -90 -90   XYZ
    dof ry
    limits (-180.0 0.0)
  end
  begin
     id 28
     name rhand
     direction -1 -4.48924e-011 2.29804e-026   
     length 0.594069   
     axis -1.46689e-014 -90 -90   XYZ
    dof rx rz
    limits (-90.0 90.0)
           (-45.0 45.0)
  end
  begin
     id 29
     name rfingers
     direction -1 -4.48998e-011 4.59888e-026   
     length 0.478954   
     axis -2.93383e-014 -90 -90   XYZ
    dof rx
    limits (0.0 90.0)
  end
  begin
     id 30
     name rthumb
     direction -0.707107 -6.34933e-011 0.707107   
     length 0.687685   
     axis -90 -45 -5.69224e-014   XYZ
    dof rx rz
    limits (-45.0 45.0)
           (-45.0 45.0)
  end
:hierarchy
  begin
    root lhipjoint rhipjoint lowerback
    lhipjoint lfemur
    lfemur ltibia
    ltibia lfoot
    lfoot ltoes
    rhipjoint rfemur
    rfemur rtibia
    rtibia rfoot
    rfoot rtoes
    lowerback upperback
    upperback thorax
    thorax lowerneck lclavicle rclavicle
    lowerneck upperneck
    upperneck head
    lclavicle lhumerus
    lhumerus lradius
    lradius lwrist
    lwrist lhand lthumb
    lhand lfingers
    rclavicle rhumerus
    rhumerus rradius
    rradius rwrist
    rwrist rhand rthumb
    rhand rfingers
  end

#!OML:ASF E:\pregnant2\Project 1\Capture day 1\Session 1\pregnant2.ASF
:FULLY-SPECIFIED
:DEGREES
352
root 7.79356 10.3185 15.5024 11.8357 0.582308 2.95625
lowerback 14.2279 -0.44957 0.594427
upperback -8.65287 -0.790512 -1.88802
thorax -18.1033 -0.603267 -2.29581
lowerneck -14.3375 -0.611994 -0.551902
upperneck 39.5998 0.465554 -2.93886
head 16.734 -0.312068 -1.13146
rclavicle -4.37171e-015 1.70955e-014
rhumerus -67.2754 56.5316 -84.67
rradius 104.234
rwrist 10.3068
rhand -14.6726 -18.4823
rfingers 7.12502
rthumb 11.4805 -48.1479
lclavicle -4.37171e-015 1.70955e-014
lhumerus -62.1022 -53.4242 79.2708
lradius 104.179
lwrist 9.62263
lhand -13.0513 34.6795
lfingers 7.12502
lthumb 13.0438 64.2517
rfemur -103.644 -10.2911 24.7166
rtibia 101.788
rfoot -8.88182 -7.62348
rtoes 4.49731
lfemur -100.664 1.36092 -26.9301
ltibia 88.3784
lfoot -1.9987 1.31355
ltoes -10.9236
353
root 7.79229 10.3242 15.506 11.9024 0.566271 2.98355
lowerback 14.5683 -0.44133 0.547172
upperback -8.53662 -0.7842 -1.85417
thorax -18.1781 -0.591204 -2.2315
lowerneck -14.359 -0.593239 -0.555718
upperneck 39.5434 0.508831 -2.97124
head 16.7102 -0.298473 -1.13609
rclavicle -7.90713e-015 -5.1684e-015
rhumerus -68.257 56.5215 -85.403
rradius 104.248
rwrist 11.0354
rhand -16.2338 -18.7751
rfingers 7.12502
rthumb 9.97457 -48.5187
lclavicle -7.90713e-015 -5.1684e-015
lhumerus -62.9128 -53.5271 80.0975
lradius 104.168
lwrist 9.85203
lhand -14.7061 35.2238
lfingers 7.12502
lthumb 11.4482 64.8912
rfemur -103.612 -10.3251 24.6137
rtibia 101.924
rfoot -9.021 -7.4929
rtoes 4.43424
lfemur -100.727 1.40484 -27.2347
ltibia 89.2687
lfoot -2.44628 1.47679
ltoes -10.9302
354
root 7.79126 10.3281 15.5089 11.966 0.561135 3.0016
lowerback 14.9376 -0.43742 0.515223
upperback -8.41679 -0.780354 -1.81849
thorax -18.2677 -0.582076 -2.17305
lowerneck -14.3848 -0.579146 -0.569482
upperneck 39.4852 0.542714 -2.99047
head 16.6863 -0.288429 -1.13472
rclavicle -3.72838e-015 -2.78299e-015
rhumerus -69.1726 56.4963 -86.08
rradius 104.216
rwrist 11.9231
rhand -17.7366 -19.1207
rfingers 7.12502
rthumb 8.52458 -48.9286
lclavicle -3.72838e-015 -2.78299e-015
lhumerus -63.6922 -53.65 80.9101
lradius 104.115
lwrist 10.1085
lhand -16.3349 35.7692
lfingers 7.12502
lthumb 9.87709 65.5176
rfemur -103.59 -10.3668 24.5087
rtibia 102.049
rfoot -9.14373 -7.34912
rtoes 4.37206
lfemur -100.788 1.44115 -27.5078
ltibia 90.1475
lfoot -2.88112 1.64898
ltoes -10.9162
355
root 7.79061 10.3301 15.5107 12.0224 0.569601 3.00314
lowerback 15.346 -0.439276 0.507491
upperback -8.29351 -0.778392 -1.77891
thorax -18.3789 -0.576581 -2.12332
lowerneck -14.4111 -0.571091 -0.595145
upperneck 39.4228 0.565395 -2.99603
head 16.66 -0.282873 -1.12703
rclavicle 6.29278e-015 -1.33186e-014
rhumerus -70.0156 56.4646 -86.6958
rradius 104.152
rwrist 12.8311
rhand -19.1447 -19.5258
rfingers 7.12502
rthumb 7.16549 -49.3845
lclavicle 6.29278e-015 -1.33186e-014
lhumerus -64.4465 -53.789 81.7086
lradius 104.035
lwrist 10.4362
lhand -17.9503 36.3135
lfingers 7.12502
lthumb 8.3183 66.1297
rfemur -103.575 -10.416 24.4095
rtibia 102.161
rfoot -9.24092 -7.19406
rtoes 4.31741
lfemur -100.849 1.46907 -27.7411
ltibia 91.012
lfoot -3.30731 1.82279
ltoes -10.9051
356
root 7.79044 10.3303 15.5115 12.0704 0.587532 2.98773
lowerback 15.7938 -0.446946 0.519314
upperback -8.16458 -0.778607 -1.73232
thorax -18.5088 -0.573908 -2.07581
lowerneck -14.4417 -0.568061 -0.629415
upperneck 39.3534 0.580747 -2.99641
head 16.6308 -0.280924 -1.11667
rclavicle 4.96496e-015 -7.35503e-015
rhumerus -70.7927 56.4419 -87.2612
rradius 104.073
rwrist 13.6303
rhand -20.465 -19.9881
rfingers 7.12502
rthumb 5.89085 -49.8863
lclavicle 4.96496e-015 -7.35503e-015
lhumerus -65.1707 -53.9325 82.4898
lradius 103.94
lwrist 10.8834
lhand -19.5544 36.8812
lfingers 7.12502
lthumb 6.77003 66.753
rfemur -103.561 -10.4687 24.3165
rtibia 102.258
rfoot -9.30985 -7.02856
rtoes 4.26238
lfemur -100.907 1.49307 -27.9339
ltibia 91.8583
lfoot -3.73453 1.99438
ltoes -10.9191
357
root 7.79055 10.3297 15.5116 12.114 0.60888 2.96156
lowerback 16.2673 -0.457803 0.55017
upperback -8.03103 -0.778675 -1.68798
thorax -18.6499 -0.573774 -2.0417
lowerneck -14.4722 -0.572398 -0.668594
upperneck 39.2772 0.580776 -2.98396
head 16.5976 -0.284224 -1.10232
rclavicle 4.64659e-015 4.96962e-016
rhumerus -71.5328 56.4246 -87.8169
rradius 103.987
rwrist 14.2296
rhand -21.7506 -20.5022
rfingers 7.12502
rthumb 4.64964 -50.4311
lclavicle 4.64659e-015 4.96962e-016
lhumerus -65.8808 -54.0962 83.2618
lradius 103.845
lwrist 11.4846
lhand -21.1788 37.4933
lfingers 7.12502
lthumb 5.20174 67.4094
rfemur -103.547 -10.5203 24.2235
rtibia 102.333
rfoot -9.35411 -6.85365
rtoes 4.19807
lfemur -100.961 1.51757 -28.0932
ltibia 92.6789
lfoot -4.15377 2.16795
ltoes -10.9462
